<svg id="logo" xmlns="http://www.w3.org/2000/svg" viewBox="0 0 147 95"><defs><style>.cls-1{fill:#fc0101}</style></defs><circle class="cls-1" cx="133" cy="81" r="14"/><circle class="cls-1" cx="14" cy="14" r="14"/><path d="M35.72 45.28a3.51 3.51 0 0 0 .63-1 2.9 2.9 0 0 0 .24-1.16 2.39 2.39 0 0 0-.81-1.84L29 35.13l5.46-5a3.12 3.12 0 0 0 .7-1 2.41 2.41 0 0 0 .22-1.12 2.87 2.87 0 0 0-.24-1.16 3.5 3.5 0 0 0-.68-1 3.08 3.08 0 0 0-1-.64 2.82 2.82 0 0 0-1.09-.21 2.79 2.79 0 0 0-2 .79l-6.55 6v-12a2.87 2.87 0 0 0-2.94-2.91 3 3 0 0 0-1.16.23 2.69 2.69 0 0 0-1 .62 2.78 2.78 0 0 0-.92 2.06V43.4a2.73 2.73 0 0 0 .25 1.12 3.16 3.16 0 0 0 .67.94 2.86 2.86 0 0 0 1 .63 3 3 0 0 0 1.16.22 2.81 2.81 0 0 0 2.12-.85 2.6 2.6 0 0 0 .63-.92 2.94 2.94 0 0 0 .23-1.14v-5l7.59 6.93a3.13 3.13 0 0 0 2.2.89 2.76 2.76 0 0 0 2.07-.94zm4.79 7.89a3 3 0 0 0 2.13.9 2.77 2.77 0 0 0 2.12-.9 3.17 3.17 0 0 0 .8-2.22v-5.6a10.93 10.93 0 0 0 12.74-2 10.84 10.84 0 0 0 2.37-3.5 10.94 10.94 0 0 0 0-8.43 11.33 11.33 0 0 0-2.36-3.53 11 11 0 0 0-3.51-2.35 10.84 10.84 0 0 0-8.39 0 11.11 11.11 0 0 0-5.91 5.79 10.19 10.19 0 0 0-.9 4.15V51a3 3 0 0 0 .25 1.22 3.14 3.14 0 0 0 .66.95zM46 33.74a5.12 5.12 0 0 1 1.09-1.59 4.91 4.91 0 0 1 3.5-1.44 5 5 0 0 1 3.51 1.44 5.09 5.09 0 0 1 1.08 1.59 5 5 0 0 1 0 3.81 5.09 5.09 0 0 1-1.08 1.59 5 5 0 0 1-5.43 1 4.85 4.85 0 0 1-1.58-1A5.12 5.12 0 0 1 46 37.55a4.85 4.85 0 0 1 0-3.81zm33.71 11.97a11 11 0 0 0 3.51-2.36 10.83 10.83 0 0 0 3.22-7.71 10.69 10.69 0 0 0-.86-4.22 11.16 11.16 0 0 0-2.36-3.53 11 11 0 0 0-3.51-2.35 11 11 0 0 0-8.45 0 11.07 11.07 0 0 0-5.89 5.89 10.8 10.8 0 0 0 2.38 11.93 11 11 0 0 0 3.51 2.37 10.73 10.73 0 0 0 4.21.84 10.88 10.88 0 0 0 4.24-.86zM72 39.14a5.3 5.3 0 0 1-1.09-1.59 4.85 4.85 0 0 1 0-3.81A5.3 5.3 0 0 1 72 32.15a5 5 0 0 1 1.59-1.06 4.91 4.91 0 0 1 1.89-.38 5.12 5.12 0 0 1 1.94.38A5 5 0 0 1 79 32.15a4.9 4.9 0 0 1 0 7 4.79 4.79 0 0 1-1.59 1 4.93 4.93 0 0 1-1.94.38 4.73 4.73 0 0 1-1.89-.38A4.79 4.79 0 0 1 72 39.14zM44 57.06h-.18A11.62 11.62 0 0 0 33.42 64a11.19 11.19 0 0 0-1 4.27v7.53a2.63 2.63 0 0 0 .25 1.14 3 3 0 0 0 .67.94 2.81 2.81 0 0 0 1 .63 3.09 3.09 0 0 0 1.17.23 2.82 2.82 0 0 0 2.06-.86 2.6 2.6 0 0 0 .63-.92 2.93 2.93 0 0 0 .23-1.16v-7.33a5.47 5.47 0 0 1 .44-2.09 5.69 5.69 0 0 1 1.2-1.75 5.41 5.41 0 0 1 1.7-1.18 5.16 5.16 0 0 1 2.06-.45H44a3.24 3.24 0 0 0 1.2-.23A2.89 2.89 0 0 0 47.06 60a2.87 2.87 0 0 0-.82-2.14 3 3 0 0 0-2.24-.8zm23.21 3.16a10.95 10.95 0 0 0-11.9-2.32 11.07 11.07 0 0 0-5.89 5.89 10.7 10.7 0 0 0-.86 4.21 10.57 10.57 0 0 0 .86 4.21 10.81 10.81 0 0 0 2.38 3.5 11.13 11.13 0 0 0 3.51 2.36 10.74 10.74 0 0 0 4.22.84 11 11 0 0 0 5.39-1.41 2.81 2.81 0 0 0 2.51 1.41 3 3 0 0 0 2.18-.91 3 3 0 0 0 .88-2.16v-8a10.92 10.92 0 0 0-.91-4.17 11.17 11.17 0 0 0-2.37-3.45zm-3.08 9.7a4.93 4.93 0 0 1-1.08 1.59 5 5 0 0 1-1.59 1.06 5.11 5.11 0 0 1-1.93.38 4.92 4.92 0 0 1-1.9-.38A5 5 0 0 1 56 71.51a5.3 5.3 0 0 1-1-1.59 4.68 4.68 0 0 1-.39-1.9 4.76 4.76 0 0 1 .39-1.91 5.42 5.42 0 0 1 1-1.59 4.79 4.79 0 0 1 1.59-1 4.74 4.74 0 0 1 1.9-.38 4.92 4.92 0 0 1 1.93.38 4.79 4.79 0 0 1 1.59 1 5 5 0 0 1 1.08 1.59 4.93 4.93 0 0 1 .42 1.89 4.85 4.85 0 0 1-.38 1.92zm52.92-9.7a10.93 10.93 0 0 0-11.89-2.32 11.06 11.06 0 0 0-3.52 2.36 11.33 11.33 0 0 0-2.38 3.53 10.69 10.69 0 0 0-.85 4.21 10.56 10.56 0 0 0 .85 4.21 11.13 11.13 0 0 0 5.9 5.86 10.69 10.69 0 0 0 4.21.84 10.93 10.93 0 0 0 5.39-1.41 2.91 2.91 0 0 0 1 1 2.82 2.82 0 0 0 1.47.37 3.19 3.19 0 0 0 1.19-.23 3.3 3.3 0 0 0 1-.66 3 3 0 0 0 .87-2.16v-8a11 11 0 0 0-3.28-7.62zm-3.05 9.7a5.09 5.09 0 0 1-1.08 1.59 4.91 4.91 0 0 1-1.6 1.06 5.07 5.07 0 0 1-1.93.38 5 5 0 0 1-1.9-.38 5 5 0 0 1-1.58-1.06 5.12 5.12 0 0 1-1.09-1.59 4.68 4.68 0 0 1-.39-1.9 4.76 4.76 0 0 1 .39-1.91 5.24 5.24 0 0 1 1.09-1.59 4.85 4.85 0 0 1 1.58-1 4.78 4.78 0 0 1 1.9-.38 4.89 4.89 0 0 1 1.93.38 4.73 4.73 0 0 1 1.6 1 5.21 5.21 0 0 1 1.08 1.59 4.93 4.93 0 0 1 .38 1.91 4.85 4.85 0 0 1-.38 1.9zm23.14-12.04a3.08 3.08 0 0 0-2.28-.82h-.18a11.53 11.53 0 0 0-7.88 3.32 11.71 11.71 0 0 0-2.49 3.62 11.18 11.18 0 0 0-1 4.27v7.53a2.78 2.78 0 0 0 .24 1.14 3 3 0 0 0 .68.94 2.86 2.86 0 0 0 1 .63 3.17 3.17 0 0 0 1.17.23 2.82 2.82 0 0 0 2.07-.86 2.6 2.6 0 0 0 .63-.92 2.92 2.92 0 0 0 .22-1.16v-7.33a5.67 5.67 0 0 1 .45-2.09 5.49 5.49 0 0 1 1.23-1.75 5.34 5.34 0 0 1 1.71-1.18 5.12 5.12 0 0 1 2.06-.45h.14a3.24 3.24 0 0 0 1.2-.23 3 3 0 0 0 1-.62 3.08 3.08 0 0 0 .08-4.27zM110.5 31.42a10.8 10.8 0 0 0-5.87-5.88 10.84 10.84 0 0 0-8.39 0 11 11 0 0 0-3.5 2.32 11.21 11.21 0 0 0-2.41 3.47 10.35 10.35 0 0 0-.89 4.15v22.8a10.83 10.83 0 0 0-5-1.21 10.63 10.63 0 0 0-4.21.85 11 11 0 0 0-5.89 5.86 10.94 10.94 0 0 0 0 8.43 11.44 11.44 0 0 0 2.36 3.53 11 11 0 0 0 3.52 2.35 10.84 10.84 0 0 0 8.39 0 11 11 0 0 0 3.5-2.32 11.13 11.13 0 0 0 2.4-3.47 10.22 10.22 0 0 0 .9-4.15v-22.8a10.92 10.92 0 0 0 9.22.36 11.17 11.17 0 0 0 3.52-2.36 10.84 10.84 0 0 0 2.37-3.5 10.88 10.88 0 0 0 0-8.43zM89 69.88a5 5 0 0 1-1.09 1.59 5 5 0 0 1-3.5 1.43 5 5 0 0 1-3.51-1.43 4.9 4.9 0 0 1-1.07-1.59 4.85 4.85 0 0 1 0-3.81 4.9 4.9 0 0 1 1.07-1.59 5 5 0 0 1 5.43-1.06 5 5 0 0 1 1.58 1.06A5 5 0 0 1 89 66.07a4.85 4.85 0 0 1 0 3.81zm16-32.33a5 5 0 0 1-2.66 2.64 5 5 0 0 1-3.84 0 4.75 4.75 0 0 1-1.58-1 5 5 0 0 1-1.09-1.59 4.74 4.74 0 0 1 0-3.81 5.08 5.08 0 0 1 2.67-2.65 5 5 0 0 1 3.84 0 4.93 4.93 0 0 1 1.58 1.06 4.77 4.77 0 0 1 1.08 1.54 5 5 0 0 1 0 3.81z"/></svg>